<svg xmlns="http://www.w3.org/2000/svg" xmlns:xlink="http://www.w3.org/1999/xlink" width="1200" zoomAndPan="magnify" viewBox="0 0 900 899.99999" height="1200" preserveAspectRatio="xMidYMid meet" version="1.0"><path fill="#ffffff" d="M 100.507812 689.675781 L 124.078125 713.246094 C 160.648438 749.816406 208.679688 768.101562 256.746094 768.101562 C 304.8125 768.101562 352.808594 749.816406 389.414062 713.246094 C 396.066406 706.597656 396.066406 695.78125 389.414062 689.128906 L 341.175781 640.859375 C 337.96875 637.652344 333.636719 635.878906 329.101562 635.878906 C 324.5625 635.878906 320.230469 637.6875 317.023438 640.859375 C 283.765625 674.121094 229.660156 674.121094 196.433594 640.859375 L 172.894531 617.320312 C 139.636719 584.058594 139.636719 529.957031 172.894531 496.695312 L 317.605469 351.953125 C 349.773438 319.785156 406.09375 319.816406 438.195312 351.953125 L 461.769531 375.492188 C 494.996094 408.75 494.996094 462.855469 461.769531 496.117188 C 455.117188 502.769531 455.117188 513.582031 461.769531 520.234375 L 510.003906 568.503906 C 516.417969 574.917969 527.742188 574.917969 534.121094 568.503906 C 607.296875 495.332031 607.296875 376.308594 534.121094 303.171875 L 510.585938 279.632812 C 437.410156 206.460938 318.390625 206.460938 245.25 279.632812 L 100.507812 424.339844 C 27.332031 497.515625 27.332031 616.503906 100.507812 689.675781 Z M 124.625 448.460938 L 269.367188 303.71875 C 299.285156 273.800781 338.585938 258.859375 377.917969 258.859375 C 417.25 258.859375 456.546875 273.800781 486.5 303.71875 L 510.039062 327.253906 C 565.8125 383.03125 569.601562 471.417969 521.433594 531.628906 L 497.109375 507.304688 C 532.074219 460.570312 528.355469 393.84375 485.921875 351.375 L 462.347656 327.835938 C 417.351562 282.804688 338.585938 282.769531 293.519531 327.835938 L 148.8125 472.578125 C 126.296875 495.09375 113.914062 525.078125 113.914062 557.007812 C 113.914062 588.9375 126.296875 618.925781 148.8125 641.4375 L 172.351562 664.976562 C 213.320312 705.980469 282.773438 710.382812 328.25 676.199219 L 352.570312 700.523438 C 292.292969 748.691406 203.972656 744.871094 148.230469 689.128906 L 124.660156 665.558594 C 64.789062 605.722656 64.789062 508.328125 124.660156 448.460938 Z M 124.625 448.460938 " fill-opacity="1" fill-rule="nonzero"/><path fill="#ffffff" d="M 438.195312 400.222656 L 389.960938 351.953125 C 383.546875 345.539062 372.21875 345.539062 365.839844 351.953125 C 292.667969 425.125 292.667969 544.148438 365.839844 617.285156 L 389.378906 640.824219 C 425.949219 677.394531 474.015625 695.679688 522.082031 695.679688 C 570.144531 695.679688 618.144531 677.394531 654.746094 640.824219 L 799.488281 496.082031 C 872.664062 422.910156 872.664062 303.921875 799.488281 230.75 L 775.917969 207.175781 C 702.746094 134.003906 583.757812 134.003906 510.617188 207.175781 C 503.964844 213.828125 503.964844 224.640625 510.617188 231.292969 L 558.855469 279.566406 C 562.0625 282.769531 566.394531 284.546875 570.929688 284.546875 C 575.46875 284.546875 579.800781 282.738281 583.007812 279.566406 C 616.265625 246.304688 670.371094 246.304688 703.597656 279.566406 L 727.136719 303.101562 C 760.394531 336.363281 760.394531 390.46875 727.136719 423.726562 L 582.425781 568.472656 C 550.257812 600.640625 493.902344 600.605469 461.835938 568.472656 L 438.261719 544.933594 C 405.039062 511.671875 405.039062 457.566406 438.261719 424.308594 C 444.914062 417.65625 444.914062 406.839844 438.261719 400.191406 Z M 414.078125 569.085938 L 437.648438 592.625 C 482.679688 637.652344 561.445312 637.6875 606.476562 592.625 L 751.1875 447.878906 C 773.699219 425.363281 786.082031 395.378906 786.082031 363.449219 C 786.082031 331.519531 773.699219 301.535156 751.1875 279.019531 L 727.648438 255.480469 C 686.675781 214.511719 617.222656 210.109375 571.75 244.257812 L 547.425781 219.933594 C 607.671875 171.730469 695.992188 175.554688 751.765625 231.328125 L 775.339844 254.902344 C 835.207031 314.734375 835.207031 412.128906 775.339844 472 L 630.59375 616.742188 C 570.761719 676.574219 473.402344 676.574219 413.496094 616.742188 L 389.960938 593.203125 C 334.183594 537.425781 330.398438 449.039062 378.566406 388.828125 L 402.886719 413.152344 C 367.921875 459.886719 371.640625 526.613281 414.078125 569.085938 Z M 414.078125 569.085938 " fill-opacity="1" fill-rule="nonzero"/></svg>